<svg width="14" height="14" viewBox="0 0 14 14" fill="none" xmlns="http://www.w3.org/2000/svg">
<rect x="12.917" y="6.99707" width="1.07644" height="1" fill="#FBFBFB"/>
<rect x="6.45898" y="6.99707" width="1.07644" height="1" fill="#5A5967"/>
<rect x="5.38184" y="6.99707" width="1.07644" height="1" fill="#EBEBED"/>
<rect x="4.30566" y="6.99707" width="1.07644" height="1" fill="#706F7A"/>
<rect x="12.917" y="5.99707" width="1.07644" height="1" fill="#FBFBFB"/>
<rect width="1" height="1.07644" transform="matrix(0.0062484 0.999981 -0.999986 0.00538802 12.917 8.99609)" fill="#C3C3C8"/>
<rect width="1" height="1.07644" transform="matrix(0.0062484 0.999981 -0.999986 0.00538802 2.15332 9.99609)" fill="#EBEBED"/>
<rect x="6.45898" y="5.99707" width="1.07644" height="1" fill="#CCCCD0"/>
<rect x="5.38184" y="5.99707" width="1.07644" height="1" fill="#BABAC0"/>
<rect x="12.917" y="4.99805" width="1.07644" height="1" fill="#E4E4E6"/>
<rect x="11.8408" y="4.99805" width="1.07644" height="1" fill="#706F7A"/>
<rect x="6.45898" y="4.99805" width="1.07644" height="1" fill="#F3F3F3"/>
<rect x="5.38184" width="1.07644" height="1" fill="#42414F"/>
<rect x="5.38184" y="1" width="1.07644" height="1" fill="#42414F"/>
<rect x="6.45898" width="1.07644" height="1" fill="#EBEBED"/>
<rect x="7.53516" width="1.07644" height="1" fill="#E4E4E6"/>
<rect x="8.61133" width="1.07644" height="1" fill="#C3C3C8"/>
<rect x="9.68848" width="1.07644" height="1" fill="#5A5967"/>
<rect x="6.45898" y="1" width="1.07644" height="1" fill="#F3F3F3"/>
<rect x="7.53516" y="1" width="1.07644" height="1" fill="#706F7A"/>
<rect x="8.61133" y="1" width="1.07644" height="1" fill="#C3C3C8"/>
<rect x="9.68848" y="1" width="1.07644" height="1" fill="#EBEBED"/>
<rect x="10.7646" y="1" width="1.07644" height="1" fill="#A1A1A8"/>
<rect x="6.45898" y="1.99902" width="1.07644" height="1" fill="#E4E4E6"/>
<rect x="7.53516" y="1.99902" width="1.07644" height="1" fill="#83838C"/>
<rect x="9.68848" y="1.99902" width="1.07644" height="1" fill="#706F7A"/>
<rect x="10.7646" y="1.99902" width="1.07644" height="1" fill="#F3F3F3"/>
<rect x="11.8408" y="1.99902" width="1.07644" height="1" fill="#A1A1A8"/>
<rect x="6.45898" y="2.99902" width="1.07644" height="1" fill="#DDDDDE"/>
<rect x="7.53516" y="2.99902" width="1.07644" height="1" fill="#83838C"/>
<rect x="7.53516" y="3.99805" width="1.07644" height="1" fill="#83838C"/>
<rect x="10.7646" y="2.99902" width="1.07644" height="1" fill="#706F7A"/>
<rect x="11.8408" y="2.99902" width="1.07644" height="1" fill="#F3F3F3"/>
<rect x="12.917" y="2.99902" width="1.07644" height="1" fill="#5A5967"/>
<rect x="6.45898" y="3.99805" width="1.07644" height="1" fill="#E4E4E6"/>
<rect x="11.8408" y="3.99805" width="1.07644" height="1" fill="#C3C3C8"/>
<rect x="12.917" y="3.99805" width="1.07644" height="1" fill="#C3C3C8"/>
<rect x="5.38184" y="4.99805" width="1.07644" height="1" fill="#42414F"/>
<rect width="1" height="1.07644" transform="matrix(0.0062484 0.999981 -0.999986 0.00538802 6.45898 12.9951)" fill="#FBFBFB"/>
<rect width="1" height="1.07644" transform="matrix(0.0062484 0.999981 -0.999986 0.00538802 5.38184 12.9951)" fill="#E4E4E6"/>
<rect width="1" height="1.07644" transform="matrix(0.0062484 0.999981 -0.999986 0.00538802 10.7646 12.9951)" fill="#5A5967"/>
<rect width="1" height="1.07644" transform="matrix(0.0062484 0.999981 -0.999986 0.00538802 10.7646 11.9951)" fill="#F3F3F3"/>
<rect width="1" height="1.07644" transform="matrix(0.0062484 0.999981 -0.999986 0.00538802 9.68848 11.9951)" fill="#C3C3C8"/>
<rect width="1" height="1.07644" transform="matrix(0.0062484 0.999981 -0.999986 0.00538802 5.38184 11.9951)" fill="#706F7A"/>
<rect width="1" height="1.07644" transform="matrix(0.0062484 0.999981 -0.999986 0.00538802 3.22949 11.9951)" fill="#F3F3F3"/>
<rect width="1" height="1.07644" transform="matrix(0.0062484 0.999981 -0.999986 0.00538802 8.61133 12.9951)" fill="#E4E4E6"/>
<rect width="1" height="1.07644" transform="matrix(0.0062484 0.999981 -0.999986 0.00538802 12.917 10.9951)" fill="#A1A1A8"/>
<rect width="1" height="1.07644" transform="matrix(0.0062484 0.999981 -0.999986 0.00538802 3.22949 10.9951)" fill="#706F7A"/>
<rect width="1" height="1.07644" transform="matrix(0.0062484 0.999981 -0.999986 0.00538802 1.07617 10.9951)" fill="#94939C"/>
<rect width="1" height="1.07644" transform="matrix(0.0062484 0.999981 -0.999986 0.00538802 12.917 9.99609)" fill="#EBEBED"/>
<rect width="1" height="1.07644" transform="matrix(0.0062484 0.999981 -0.999986 0.00538802 4.30566 9.99609)" fill="#42414F"/>
<rect width="1" height="1.07644" transform="matrix(0.0062484 0.999981 -0.999986 0.00538802 1.07617 9.99609)" fill="#BABAC0"/>
<rect x="4.30566" y="8.99609" width="1.07644" height="1" fill="#94939C"/>
<rect x="2.15332" y="8.99609" width="1.07644" height="1" fill="#CCCCD0"/>
<rect x="1.07617" y="8.99609" width="1.07644" height="1" fill="#83838C"/>
<rect x="12.917" y="7.99707" width="1.07644" height="1" fill="#E4E4E6"/>
<rect x="11.8408" y="7.99707" width="1.07644" height="1" fill="#706F7A"/>
<rect x="3.22949" y="7.99707" width="1.07644" height="1" fill="#706F7A"/>
<rect x="4.30566" y="7.99707" width="1.07644" height="1" fill="#F3F3F3"/>
<rect x="5.38184" y="7.99707" width="1.07644" height="1" fill="#A1A1A8"/>
<rect x="3.22949" y="8.99609" width="1.07644" height="1" fill="#F3F3F3"/>
<rect width="1" height="1.07644" transform="matrix(0.0062484 0.999981 -0.999986 0.00538802 13.9941 8.99609)" fill="#C3C3C8"/>
<rect width="1" height="1.07644" transform="matrix(0.0062484 0.999981 -0.999986 0.00538802 3.22949 9.99609)" fill="#AFAFB5"/>
<rect width="1" height="1.07644" transform="matrix(0.0062484 0.999981 -0.999986 0.00538802 11.8408 9.99609)" fill="#706F7A"/>
<rect width="1" height="1.07644" transform="matrix(0.0062484 0.999981 -0.999986 0.00538802 13.9941 9.99609)" fill="#5A5967"/>
<rect width="1" height="1.07644" transform="matrix(0.0062484 0.999981 -0.999986 0.00538802 2.15332 10.9951)" fill="#F3F3F3"/>
<rect width="1" height="1.07644" transform="matrix(0.0062484 0.999981 -0.999986 0.00538802 9.68848 12.9951)" fill="#C3C3C8"/>
<rect width="1" height="1.07644" transform="matrix(0.0062484 0.999981 -0.999986 0.00538802 10.7646 10.9951)" fill="#706F7A"/>
<rect width="1" height="1.07644" transform="matrix(0.0062484 0.999981 -0.999986 0.00538802 11.8408 10.9951)" fill="#F3F3F3"/>
<rect width="1" height="1.07644" transform="matrix(0.0062484 0.999981 -0.999986 0.00538802 2.15332 11.9951)" fill="#A1A1A8"/>
<rect width="1" height="1.07644" transform="matrix(0.0062484 0.999981 -0.999986 0.00538802 4.30566 11.9951)" fill="#C3C3C8"/>
<rect width="1" height="1.07644" transform="matrix(0.0062484 0.999981 -0.999986 0.00538802 8.61133 11.9951)" fill="#706F7A"/>
<rect width="1" height="1.07644" transform="matrix(0.0062484 0.999981 -0.999986 0.00538802 11.8408 11.9951)" fill="#A1A1A8"/>
<rect width="1" height="1.07644" transform="matrix(0.0062484 0.999981 -0.999986 0.00538802 3.22949 12.9951)" fill="#5A5967"/>
<rect width="1" height="1.07644" transform="matrix(0.0062484 0.999981 -0.999986 0.00538802 4.30566 12.9951)" fill="#C3C3C8"/>
<rect width="1" height="1.07644" transform="matrix(0.0062484 0.999981 -0.999986 0.00538802 7.53516 12.9951)" fill="#FBFBFB"/>
</svg>
